<svg width="48" height="48" viewBox="0 0 48 48" fill="none" xmlns="http://www.w3.org/2000/svg">
<path d="M10.9375 15.587C10.729 14.5666 9.271 14.5666 9.06244 15.587C8.60181 17.8406 6.84061 19.6018 4.58695 20.0625C3.56656 20.271 3.56656 21.729 4.58695 21.9375C6.84061 22.3982 8.60181 24.1594 9.06244 26.413C9.271 27.4334 10.729 27.4334 10.9375 26.413C11.3982 24.1594 13.1594 22.3982 15.413 21.9375C16.4334 21.729 16.4334 20.271 15.413 20.0625C13.1594 19.6018 11.3982 17.8406 10.9375 15.587Z" fill="#8800FF"/>
<path d="M3.4375 7.75218C3.56264 7.13994 4.43741 7.13994 4.56255 7.75218C4.83893 9.10437 5.89565 10.1611 7.24784 10.4375C7.86008 10.5626 7.86008 11.4374 7.24784 11.5625C5.89565 11.8389 4.83893 12.8956 4.56255 14.2478C4.43741 14.8601 3.56264 14.8601 3.4375 14.2478C3.16112 12.8956 2.1044 11.8389 0.752208 11.5625C0.13997 11.4374 0.13997 10.5626 0.752209 10.4375C2.1044 10.1611 3.16112 9.10437 3.4375 7.75218Z" fill="#8800FF"/>
<path d="M18.2173 42.3246L18.2932 43.8226L18.2932 43.8226L18.2173 42.3246ZM27.9505 41.831L27.8745 40.3329L27.9505 41.831ZM37.1605 34.4318L35.714 34.0348L35.714 34.0348L37.1605 34.4318ZM37.542 33.0419L38.9885 33.4389L38.9885 33.4389L37.542 33.0419ZM34.9491 23.2464L33.8884 24.3071L33.8884 24.3071L34.9491 23.2464ZM26.7179 15.0152L27.7785 13.9545L27.7785 13.9545L26.7179 15.0152ZM16.9224 12.4223L17.3194 13.8688L17.3194 13.8688L16.9224 12.4223ZM15.1412 11.3557C14.3423 11.5749 13.8724 12.4003 14.0917 13.1992C14.3109 13.9981 15.1363 14.468 15.9352 14.2487L15.1412 11.3557ZM9.17287 31.1312C9.21482 30.3038 8.57812 29.5991 7.75076 29.5571C6.92339 29.5152 6.21867 30.1519 6.17672 30.9792L9.17287 31.1312ZM7.63971 31.747L6.14163 31.6711L6.14163 31.6711L7.63971 31.747ZM23.559 12.2974L24.2376 10.9597L24.2376 10.9597L23.559 12.2974ZM21.0121 11.6233L20.94 13.1215L20.94 13.1215L21.0121 11.6233ZM38.341 28.9522L36.8428 29.0243L36.8428 29.0243L38.341 28.9522ZM37.6668 26.4053L39.0046 25.7267L39.0046 25.7267L37.6668 26.4053ZM32.967 41.1367L33.5873 42.5024L33.5873 42.5024L32.967 41.1367ZM35.4015 39.1809L36.6015 40.0809L36.6015 40.0809L35.4015 39.1809ZM10.9739 41.9147L10.3202 43.2647L10.3202 43.2647L10.9739 41.9147ZM8.04959 38.9903L6.69956 39.6441L6.69956 39.6441L8.04959 38.9903ZM9.72633 38.1165C9.14054 38.7023 9.14054 39.652 9.72633 40.2378C10.3121 40.8236 11.2619 40.8236 11.8476 40.2378L9.72633 38.1165ZM21.4997 30.5858C22.0854 30 22.0854 29.0503 21.4997 28.4645C20.9139 27.8787 19.9641 27.8787 19.3783 28.4645L21.4997 30.5858ZM36.7732 25.0705L35.7125 26.1311L36.5977 27.0163L37.627 26.3037L36.7732 25.0705ZM24.8938 13.1911L23.6605 12.3373L22.9479 13.3665L23.8331 14.2517L24.8938 13.1911ZM43.9555 16.7191L45.405 16.3332L45.405 16.3332L43.9555 16.7191ZM39.8049 22.9716L38.9511 21.7383L38.9511 21.7383L39.8049 22.9716ZM43.6967 19.5888L42.3396 18.9498L42.3396 18.9498L43.6967 19.5888ZM33.2452 6.0088L33.6311 4.55929L33.6311 4.55929L33.2452 6.0088ZM26.9927 10.1593L28.226 11.0132L28.226 11.0132L26.9927 10.1593ZM30.3755 6.26756L31.0144 7.62465L31.0144 7.62465L30.3755 6.26756ZM18.2173 42.3246L18.2932 43.8226L28.0264 43.3291L27.9505 41.831L27.8745 40.3329L18.1413 40.8265L18.2173 42.3246ZM37.1605 34.4318L38.607 34.8288L38.9885 33.4389L37.542 33.0419L36.0955 32.6449L35.714 34.0348L37.1605 34.4318ZM34.9491 23.2464L36.0097 22.1858L27.7785 13.9545L26.7179 15.0152L25.6572 16.0759L33.8884 24.3071L34.9491 23.2464ZM16.9224 12.4223L16.5254 10.9758L15.1412 11.3557L15.5382 12.8022L15.9352 14.2487L17.3194 13.8688L16.9224 12.4223ZM7.67479 31.0552L6.17672 30.9792L6.14163 31.6711L7.63971 31.747L9.13779 31.823L9.17287 31.1312L7.67479 31.0552ZM26.7179 15.0152L27.7785 13.9545C26.3415 12.5175 25.3965 11.5475 24.2376 10.9597L23.559 12.2974L22.8805 13.6352C23.5118 13.9554 24.076 14.4946 25.6572 16.0759L26.7179 15.0152ZM16.9224 12.4223L17.3194 13.8688C19.4758 13.277 20.2328 13.0875 20.94 13.1215L21.0121 11.6233L21.0843 10.125C19.7863 10.0625 18.4852 10.4379 16.5254 10.9758L16.9224 12.4223ZM23.559 12.2974L24.2376 10.9597C23.257 10.4623 22.1825 10.1779 21.0843 10.125L21.0121 11.6233L20.94 13.1215C21.6158 13.1541 22.2771 13.3291 22.8805 13.6352L23.559 12.2974ZM37.542 33.0419L38.9885 33.4389C39.5264 31.4791 39.9018 30.1779 39.8393 28.88L38.341 28.9522L36.8428 29.0243C36.8768 29.7314 36.6873 30.4885 36.0955 32.6449L37.542 33.0419ZM34.9491 23.2464L33.8884 24.3071C35.4696 25.8883 36.0088 26.4524 36.3291 27.0838L37.6668 26.4053L39.0046 25.7267C38.4168 24.5678 37.4468 23.6228 36.0097 22.1858L34.9491 23.2464ZM38.341 28.9522L39.8393 28.88C39.7864 27.7818 39.5019 26.7072 39.0046 25.7267L37.6668 26.4053L36.3291 27.0838C36.6352 27.6872 36.8102 28.3485 36.8428 29.0243L38.341 28.9522ZM27.9505 41.831L28.0264 43.3291C30.5156 43.2029 32.1745 43.1441 33.5873 42.5024L32.967 41.1367L32.3467 39.771C31.5789 40.1197 30.6203 40.1937 27.8745 40.3329L27.9505 41.831ZM37.1605 34.4318L35.714 34.0348C34.9864 36.686 34.7075 37.6062 34.2015 38.2808L35.4015 39.1809L36.6015 40.0809C37.5325 38.8396 37.9474 37.2323 38.607 34.8288L37.1605 34.4318ZM32.967 41.1367L33.5873 42.5024C34.7793 41.961 35.8159 41.1282 36.6015 40.0809L35.4015 39.1809L34.2015 38.2808C33.7181 38.9253 33.0802 39.4378 32.3467 39.771L32.967 41.1367ZM18.2173 42.3246L18.1413 40.8265C16.1852 40.9257 14.812 40.9941 13.7437 40.9577C12.6912 40.9219 12.0842 40.7857 11.6277 40.5646L10.9739 41.9147L10.3202 43.2647C11.3164 43.7472 12.4009 43.9138 13.6418 43.956C14.8669 43.9977 16.389 43.9192 18.2932 43.8226L18.2173 42.3246ZM7.63971 31.747L6.14163 31.6711C6.04507 33.5753 5.96663 35.0974 6.00829 36.3225C6.0505 37.5634 6.21713 38.6479 6.69956 39.6441L8.04959 38.9903L9.39963 38.3366C9.17855 37.88 9.04236 37.2731 9.00656 36.2205C8.97023 35.1523 9.03859 33.7791 9.13779 31.823L7.63971 31.747ZM10.9739 41.9147L11.6277 40.5646C10.6555 40.0938 9.87045 39.3088 9.39963 38.3366L8.04959 38.9903L6.69956 39.6441C7.46464 41.224 8.74028 42.4996 10.3202 43.2647L10.9739 41.9147ZM10.787 39.1771L11.8476 40.2378L21.4997 30.5858L20.439 29.5251L19.3783 28.4645L9.72633 38.1165L10.787 39.1771ZM37.2697 9.23278L36.209 10.2934C36.7929 10.8773 37.3664 11.4508 37.9399 12.0243C38.5134 12.5978 39.0869 13.1714 39.6708 13.7552L40.7315 12.6946L41.7921 11.6339C41.2083 11.05 40.6347 10.4765 40.0612 9.90302C39.4877 9.32951 38.9142 8.756 38.3303 8.17212L37.2697 9.23278ZM39.8049 22.9716L38.9511 21.7383L35.9194 23.8372L36.7732 25.0705L37.627 26.3037L40.6587 24.2049L39.8049 22.9716ZM36.7732 25.0705L37.8339 24.0098L25.9545 12.1304L24.8938 13.1911L23.8331 14.2517L35.7125 26.1311L36.7732 25.0705ZM24.8938 13.1911L26.1271 14.0449L28.226 11.0132L26.9927 10.1593L25.7594 9.30553L23.6605 12.3373L24.8938 13.1911ZM40.7315 12.6946L39.6708 13.7552C40.6676 14.7521 41.3459 15.4322 41.8194 15.9959C42.2841 16.5491 42.4427 16.8673 42.506 17.105L43.9555 16.7191L45.405 16.3332C45.1778 15.4799 44.7022 14.7636 44.1165 14.0663C43.5395 13.3794 42.751 12.5928 41.7921 11.6339L40.7315 12.6946ZM39.8049 22.9716L40.6587 24.2049C41.7736 23.433 42.6901 22.8002 43.3806 22.2275C44.0816 21.6463 44.6776 21.0267 45.0538 20.2278L43.6967 19.5888L42.3396 18.9498C42.2348 19.1723 42.0219 19.457 41.4657 19.9182C40.8991 20.3881 40.1101 20.9359 38.9511 21.7383L39.8049 22.9716ZM43.9555 16.7191L42.506 17.105C42.6698 17.7203 42.6109 18.3737 42.3396 18.9498L43.6967 19.5888L45.0538 20.2278C45.6264 19.0116 45.7508 17.6322 45.405 16.3332L43.9555 16.7191ZM37.2697 9.23278L38.3303 8.17212C37.3715 7.21327 36.5849 6.42475 35.8979 5.84776C35.2006 5.26203 34.4844 4.78647 33.6311 4.55929L33.2452 6.0088L32.8593 7.4583C33.0969 7.52158 33.4151 7.68017 33.9684 8.1449C34.5321 8.61837 35.2122 9.29661 36.209 10.2934L37.2697 9.23278ZM26.9927 10.1593L28.226 11.0132C29.0284 9.85412 29.5762 9.0652 30.046 8.49856C30.5072 7.94237 30.7919 7.72943 31.0144 7.62465L30.3755 6.26756L29.7365 4.91047C28.9376 5.28663 28.318 5.88262 27.7367 6.58362C27.1641 7.27416 26.5312 8.19066 25.7594 9.30553L26.9927 10.1593ZM33.2452 6.0088L33.6311 4.55929C32.3321 4.21345 30.9527 4.33783 29.7365 4.91047L30.3755 6.26756L31.0144 7.62465C31.5905 7.3534 32.244 7.29448 32.8593 7.4583L33.2452 6.0088Z" fill="#FF0099"/>
</svg>
